<?xml version="1.0" encoding="utf-8"?>
<!-- Generator: Adobe Illustrator 17.1.0, SVG Export Plug-In . SVG Version: 6.00 Build 0)  -->
<!DOCTYPE svg PUBLIC "-//W3C//DTD SVG 1.1//EN" "http://www.w3.org/Graphics/SVG/1.1/DTD/svg11.dtd">
<svg version="1.1" id="Calque_1" xmlns="http://www.w3.org/2000/svg" xmlns:xlink="http://www.w3.org/1999/xlink" x="0px" y="0px"
	 viewBox="0 0 200 200" enable-background="new 0 0 200 200" xml:space="preserve">
<g>
	
		<rect x="1.9" y="35.8" fill="none" stroke="#000000" stroke-width="4" stroke-linecap="round" stroke-linejoin="round" stroke-miterlimit="10" width="196.1" height="54.1"/>
	
		<polyline fill="none" stroke="#000000" stroke-width="4" stroke-linecap="round" stroke-linejoin="round" stroke-miterlimit="10" points="
		1.9,35.8 35.8,1.9 164.2,1.9 198.1,35.8 	"/>
	<path fill="none" stroke="#000000" stroke-width="4" stroke-linecap="round" stroke-linejoin="round" stroke-miterlimit="10" d="
		M1.9,144v37.2c0,9.3,7.6,16.9,16.9,16.9h162.3c9.3,0,16.9-7.6,16.9-16.9V144"/>
	<path fill="none" stroke="#000000" stroke-width="4" stroke-linecap="round" stroke-linejoin="round" stroke-miterlimit="10" d="
		M42.5,62.8c0,7.5-6.1,13.5-13.5,13.5s-13.5-6.1-13.5-13.5c0-7.5,6.1-13.5,13.5-13.5S42.5,55.3,42.5,62.8z"/>
	<g id="signalOne">
		
			<circle fill="none" stroke="#000000" stroke-width="4" stroke-linecap="round" stroke-linejoin="round" stroke-miterlimit="10" cx="116.9" cy="62.8" r="6.8"/>
		
			<circle fill="none" stroke="#000000" stroke-width="4" stroke-linecap="round" stroke-linejoin="round" stroke-miterlimit="10" cx="144" cy="62.8" r="6.8"/>
		
			<circle fill="none" stroke="#000000" stroke-width="4" stroke-linecap="round" stroke-linejoin="round" stroke-miterlimit="10" cx="171" cy="62.8" r="6.8"/>
	</g>
	
		<polyline fill="none" stroke="#000000" stroke-width="4" stroke-linecap="round" stroke-linejoin="round" stroke-miterlimit="10" points="
		198.1,89.9 198.1,144 1.9,144 1.9,89.9 	"/>
	<path fill="none" stroke="#000000" stroke-width="4" stroke-linecap="round" stroke-linejoin="round" stroke-miterlimit="10" d="
		M42.5,116.9c0,7.5-6.1,13.5-13.5,13.5s-13.5-6.1-13.5-13.5c0-7.5,6.1-13.5,13.5-13.5S42.5,109.4,42.5,116.9z"/>
	<g id="signalTwo">
		
			<circle fill="none" stroke="#000000" stroke-width="4" stroke-linecap="round" stroke-linejoin="round" stroke-miterlimit="10" cx="116.9" cy="116.9" r="6.8"/>
		
			<circle fill="none" stroke="#000000" stroke-width="4" stroke-linecap="round" stroke-linejoin="round" stroke-miterlimit="10" cx="144" cy="116.9" r="6.8"/>
		
			<circle fill="none" stroke="#000000" stroke-width="4" stroke-linecap="round" stroke-linejoin="round" stroke-miterlimit="10" cx="171" cy="116.9" r="6.8"/>
	</g>
	<g id="signalThree">
		
			<circle fill="none" stroke="#000000" stroke-width="4" stroke-linecap="round" stroke-linejoin="round" stroke-miterlimit="10" cx="116.9" cy="171" r="6.8"/>
		
			<circle fill="none" stroke="#000000" stroke-width="4" stroke-linecap="round" stroke-linejoin="round" stroke-miterlimit="10" cx="144" cy="171" r="6.8"/>
		
			<circle fill="none" stroke="#000000" stroke-width="4" stroke-linecap="round" stroke-linejoin="round" stroke-miterlimit="10" cx="171" cy="171" r="6.8"/>
	</g>
	<path fill="none" stroke="#000000" stroke-width="4" stroke-linecap="round" stroke-linejoin="round" stroke-miterlimit="10" d="
		M42.5,171c0,7.5-6.1,13.5-13.5,13.5s-13.5-6.1-13.5-13.5c0-7.5,6.1-13.5,13.5-13.5S42.5,163.5,42.5,171z"/>
</g>
</svg>
